# xmcd CD database file
#
# Track frame offsets:
#	150
#	23387
#	44562
#	69137
#	99812
#	115075
#	144775
#	171837
#	186062
#	202712
#	224012
#	245762
#
# Disc length: 3655 seconds
#
# Revision: 0
# Processed by: cddbd v1.5.1PL0 Copyright (c) Steve Scherf et al.
# Submitted via: CDex 1.51
#
DISCID=980e450c
DTITLE=Dice of Dixieland - Sideways
DYEAR=1991
DGENRE=Jazz
TTITLE0=Sideway
TTITLE1=I'm Coming Virginia
TTITLE2=Dare Eyes
TTITLE3=God Bless The Child
TTITLE4=Green Leaves Of Summer
TTITLE5=Nobody's Sweetheart
TTITLE6=St Louis Blues
TTITLE7=Limehouse Blues
TTITLE8=Davenport Blues
TTITLE9=Potato head blues
TTITLE10=Rentparty Blues
TTITLE11=Blues My Naughty Sweety Gives To Me
EXTD=YEAR: 1991
EXTT0=
EXTT1=
EXTT2=
EXTT3=
EXTT4=
EXTT5=
EXTT6=
EXTT7=
EXTT8=
EXTT9=
EXTT10=
EXTT11=
PLAYORDER=
